# xmcd
#
# Track frame offsets:
#   150
#   18131
#   32519
#   49540
#   68416
#   85219
#   100596
#   117311
#   127908
#   143889
#   158220
#   174992
#   189719
#   208335
#   215905
#   227961
#   248234
#   269420
#   285826
#   302937
#
# Disc length: 4282 seconds
#
# Revision: 0
# Processed by: cddbd v1.5.2PL0 Copyright (c) Steve Scherf et al.
# Submitted via: GXTranscoder 2.0.1939
#
DISCID=1710b814
DTITLE=Christina Aguilera - Hurt
DYEAR=2006
DGENRE=Pop
TTITLE0=Hurt
TTITLE1=Candyman
TTITLE2=Ain't no other man
TTITLE3=Back in the day
TTITLE4=Understand
TTITLE5=Slow down baby
TTITLE6=Oh mother
TTITLE7=F.U.S.S.
TTITLE8=On our way
TTITLE9=Save me from myself
TTITLE10=Still dirrty
TTITLE11=Here to stay
TTITLE12=Makes me wanna pray
TTITLE13=Enter the circus
TTITLE14=Welcome
TTITLE15=Merey on me
TTITLE16=Nasty naughty boy
TTITLE17=I got trouble
TTITLE18=Ain't no other man(Ospina and Sullivan temix)
TTITLE19=Hurt(Jake Ridley Mix)
EXTD=
EXTT0=
EXTT1=
EXTT2=
EXTT3=
EXTT4=
EXTT5=
EXTT6=
EXTT7=
EXTT8=
EXTT9=
EXTT10=
EXTT11=
EXTT12=
EXTT13=
EXTT14=
EXTT15=
EXTT16=
EXTT17=
EXTT18=
EXTT19=
PLAYORDER=
